<svg width="35" height="35" viewBox="0 0 35 35" fill="none" xmlns="http://www.w3.org/2000/svg">
<path d="M4.375 26.9793C4.375 21.3623 4.375 8.021 4.375 8.021C4.375 5.60475 6.33375 3.646 8.75 3.646H26.25V22.6043C26.25 22.6043 12.5654 22.6043 8.75 22.6043C6.34375 22.6043 4.375 24.5616 4.375 26.9793Z" fill="white" stroke="#E6007E" stroke-width="2" stroke-linejoin="round"/>
<path d="M26.25 22.604C26.25 22.604 9.59124 22.604 8.75 22.604C6.33375 22.604 4.375 24.5628 4.375 26.979C4.375 29.3952 6.33375 31.354 8.75 31.354C10.3608 31.354 19.5969 31.354 30.625 31.354V5.104" stroke="#E6007E" stroke-width="2" stroke-linecap="round" stroke-linejoin="round"/>
<path d="M9.47949 26.979H25.5212" stroke="#E6007E" stroke-width="2" stroke-linecap="round" stroke-linejoin="round"/>
</svg>
