<svg id="Layer_1" data-name="Layer 1" xmlns="http://www.w3.org/2000/svg" viewBox="0 0 114.75 161.27"><defs><style>.cls-1{fill:#e6007e;}.cls-2{fill:#b20263;}.cls-3{fill:#fff;}.cls-4{fill:none;stroke:#fff;stroke-miterlimit:10;stroke-width:5px;}</style></defs><path class="cls-1" d="M92.31-.2H10.24A9.16,9.16,0,0,0,1.08,9v143a9.16,9.16,0,0,0,9.16,9.16h96.43a9.16,9.16,0,0,0,9.16-9.16V24.42" transform="translate(-1.08 0.2)"/><path class="cls-2" d="M115.83,24.42v3.43H99.21a9.69,9.69,0,0,1-9.7-9.69V-.2h2.8" transform="translate(-1.08 0.2)"/><rect class="cls-3" x="35.11" y="40.41" width="4.84" height="24.56" transform="translate(100.24 63.6) rotate(135)"/><rect class="cls-3" x="35.11" y="40.41" width="4.84" height="24.56" transform="translate(47.17 -10.91) rotate(45)"/><rect class="cls-3" x="76.96" y="40.41" width="4.84" height="24.56" transform="translate(171.69 34.01) rotate(135)"/><rect class="cls-3" x="76.96" y="40.41" width="4.84" height="24.56" transform="translate(59.43 -40.5) rotate(45)"/><path class="cls-4" d="M24.78,98.48c2.5-10.22,16.63-18,33.67-18s31.18,7.82,33.68,18" transform="translate(-1.08 0.2)"/></svg>