<svg width="24" height="24" viewBox="0 0 24 24" fill="none" xmlns="http://www.w3.org/2000/svg">
<path d="M12 22C14.7614 22 17.2614 20.8807 19.0711 19.0711C20.8807 17.2614 22 14.7614 22 12C22 9.2386 20.8807 6.7386 19.0711 4.92893C17.2614 3.11929 14.7614 2 12 2C9.2386 2 6.7386 3.11929 4.92893 4.92893C3.11929 6.7386 2 9.2386 2 12C2 14.7614 3.11929 17.2614 4.92893 19.0711C6.7386 20.8807 9.2386 22 12 22Z" fill="white" stroke="#CF0000" stroke-width="2" stroke-linejoin="round"/>
<path fill-rule="evenodd" clip-rule="evenodd" d="M8.25 9.29167L9.29167 8.25L12 10.9583L14.7083 8.25L15.75 9.29167L13.0417 12L15.75 14.7083L14.7083 15.75L12 13.0417L9.29167 15.75L8.25 14.7083L10.9583 12L8.25 9.29167Z" fill="white" stroke="#CF0000" stroke-width="2" stroke-linecap="round" stroke-linejoin="round"/>
</svg>
