<svg width="24" height="25" viewBox="0 0 24 25" fill="none" xmlns="http://www.w3.org/2000/svg">
<path d="M16.75 13.976H12.25V10.9758L18.3125 10.9758L20.9297 10.9757L21.7139 10.9757L21.7645 10.9757C21.9496 14.5127 20.8872 16.6002 19.5524 18.3226C17.5201 20.9448 14.5229 21.9758 12 21.9758C7.12583 21.9758 2.25 18.076 2.25 11.9757C2.25 9.05551 3.55337 6.68254 5.36629 5.03575C7.18368 3.3849 9.50034 2.47571 11.5 2.47571C13.5381 2.47571 14.9434 2.84493 15.8325 3.20722C16.2773 3.38851 16.594 3.56852 16.797 3.70078C16.8411 3.72954 16.8799 3.75606 16.9134 3.77985L14.6661 7.15089C14.1081 6.8714 13.1585 6.47566 12 6.47566C8.86947 6.47566 6.25 9.08016 6.25 11.9757C6.25 14.8262 8.32715 17.976 12 17.976C13.4603 17.976 14.7034 17.4543 15.5836 16.7317C16.4558 16.0157 17 15.0763 17 14.226V13.976H16.75Z" fill="#E6007E" stroke="#FBFBFB" stroke-width="0.5"/>
<mask id="path-2-inside-1_91_39446" fill="white">
<path d="M14.75 7.47571L14.2806 8.35871C14.7343 8.59991 15.297 8.45796 15.5821 8.03041L14.75 7.47571ZM17.25 3.72571L18.0821 4.28041C18.354 3.87251 18.2901 3.32762 17.9312 2.99365L17.25 3.72571ZM22 10.7257L22.9978 10.6592C22.9628 10.1339 22.5265 9.72566 22 9.72566L22 10.7257ZM12 10.7258V9.72581C11.7348 9.72581 11.4804 9.83116 11.2929 10.0187C11.1054 10.2062 11 10.4606 11 10.7258H12ZM12 14.226H11C11 14.7782 11.4477 15.226 12 15.226V14.226ZM16.75 14.226H17.75C17.75 13.6737 17.3023 13.226 16.75 13.226V14.226ZM19.75 18.4757L18.9596 17.8632L19.75 18.4757ZM15.5821 8.03041L18.0821 4.28041L16.4179 3.17101L13.9179 6.92101L15.5821 8.03041ZM17.25 3.72571C17.9312 2.99365 17.9308 2.99322 17.9303 2.99279C17.9301 2.99263 17.9296 2.99219 17.9293 2.99188C17.9287 2.99127 17.928 2.99063 17.9272 2.98997C17.9258 2.98866 17.9243 2.98725 17.9226 2.98576C17.9194 2.98277 17.9157 2.97942 17.9116 2.97574C17.9034 2.96837 17.8934 2.95964 17.8817 2.94964C17.8584 2.92964 17.8281 2.90457 17.7908 2.87519C17.7161 2.81643 17.6129 2.74051 17.4795 2.65355C17.2124 2.47948 16.8253 2.26201 16.3041 2.04965C15.2592 1.62382 13.6931 1.22571 11.5 1.22571V3.22571C13.4451 3.22571 14.754 3.5776 15.5494 3.90177C15.9486 4.06441 16.2231 4.22194 16.3875 4.32911C16.4698 4.38278 16.5249 4.42404 16.5545 4.44731C16.5693 4.45896 16.5777 4.46611 16.58 4.46808C16.5812 4.46907 16.5808 4.46876 16.579 4.46707C16.578 4.46622 16.5766 4.46503 16.5749 4.46348C16.5741 4.46271 16.5731 4.46185 16.5721 4.46089C16.5716 4.46042 16.5711 4.45992 16.5705 4.4594C16.5702 4.45913 16.5698 4.45873 16.5697 4.4586C16.5692 4.45818 16.5688 4.45776 17.25 3.72571ZM11.5 1.22571C9.15325 1.22571 6.5449 2.27644 4.52583 4.1105C2.48885 5.96081 1 8.65641 1 11.9757H3C3 9.29501 4.19209 7.11561 5.8706 5.59091C7.56695 4.04998 9.7086 3.22571 11.5 3.22571V1.22571ZM1 11.9757C1 18.826 6.49665 23.2258 12 23.2258V21.2258C7.50335 21.2258 3 17.626 3 11.9757H1ZM22 10.7257C22 9.72566 22 9.72566 21.9999 9.72566C21.9999 9.72566 21.9997 9.72566 21.9996 9.72566C21.9994 9.72566 21.9992 9.72566 21.9988 9.72566C21.998 9.72566 21.9968 9.72566 21.9953 9.72566C21.9921 9.72566 21.9874 9.72566 21.9812 9.72566C21.9688 9.72566 21.9503 9.72566 21.9261 9.72566C21.8776 9.72566 21.8061 9.72566 21.7139 9.72566C21.5292 9.72571 21.2617 9.72571 20.9296 9.72571C20.2656 9.72571 19.3438 9.72576 18.3125 9.72576C16.25 9.72581 13.75 9.72586 12 9.72581V11.7258C13.75 11.7259 16.25 11.7258 18.3125 11.7258C19.3438 11.7258 20.2657 11.7257 20.9297 11.7257C21.2618 11.7257 21.5294 11.7257 21.7139 11.7257C21.8062 11.7257 21.8777 11.7257 21.9262 11.7257C21.9504 11.7257 21.9689 11.7257 21.9813 11.7257C21.9875 11.7257 21.9921 11.7257 21.9953 11.7257C21.9969 11.7257 21.9981 11.7257 21.9988 11.7257C21.9993 11.7257 21.9995 11.7257 21.9998 11.7257C21.9998 11.7257 21.9999 11.7257 22 11.7257C22 11.7257 22 11.7257 22 10.7257ZM11 10.7258V14.226H13V10.7258H11ZM12 15.226H16.75V13.226H12V15.226ZM15.75 14.226C15.75 14.5745 15.4892 15.192 14.7905 15.7656C14.1241 16.3127 13.1587 16.726 12 16.726V18.726C13.6413 18.726 15.051 18.1394 16.0595 17.3114C17.0358 16.51 17.75 15.3774 17.75 14.226H15.75ZM12 16.726C9.1914 16.726 7.5 14.3237 7.5 11.9757H5.5C5.5 15.1277 7.8086 18.726 12 18.726V16.726ZM7.5 11.9757C7.5 9.80766 9.5221 7.72566 12 7.72566V5.72566C8.4779 5.72566 5.5 8.64371 5.5 11.9757H7.5ZM12 7.72566C13.0001 7.72566 13.8226 8.11521 14.2806 8.35871L15.2194 6.59271C14.6774 6.30456 13.4999 5.72566 12 5.72566V7.72566ZM12 23.2258C14.8363 23.2258 18.2299 22.0696 20.5404 19.0883L18.9596 17.8632C17.0943 20.27 14.3349 21.2258 12 21.2258V23.2258ZM20.5404 19.0883C22.059 17.1289 23.2667 14.6929 22.9978 10.6592L21.0022 10.7922C21.2333 14.2587 20.2307 16.223 18.9596 17.8632L20.5404 19.0883Z"/>
</mask>
<path d="M14.75 7.47571L14.2806 8.35871C14.7343 8.59991 15.297 8.45796 15.5821 8.03041L14.75 7.47571ZM17.25 3.72571L18.0821 4.28041C18.354 3.87251 18.2901 3.32762 17.9312 2.99365L17.25 3.72571ZM22 10.7257L22.9978 10.6592C22.9628 10.1339 22.5265 9.72566 22 9.72566L22 10.7257ZM12 10.7258V9.72581C11.7348 9.72581 11.4804 9.83116 11.2929 10.0187C11.1054 10.2062 11 10.4606 11 10.7258H12ZM12 14.226H11C11 14.7782 11.4477 15.226 12 15.226V14.226ZM16.75 14.226H17.75C17.75 13.6737 17.3023 13.226 16.75 13.226V14.226ZM19.75 18.4757L18.9596 17.8632L19.75 18.4757ZM15.5821 8.03041L18.0821 4.28041L16.4179 3.17101L13.9179 6.92101L15.5821 8.03041ZM17.25 3.72571C17.9312 2.99365 17.9308 2.99322 17.9303 2.99279C17.9301 2.99263 17.9296 2.99219 17.9293 2.99188C17.9287 2.99127 17.928 2.99063 17.9272 2.98997C17.9258 2.98866 17.9243 2.98725 17.9226 2.98576C17.9194 2.98277 17.9157 2.97942 17.9116 2.97574C17.9034 2.96837 17.8934 2.95964 17.8817 2.94964C17.8584 2.92964 17.8281 2.90457 17.7908 2.87519C17.7161 2.81643 17.6129 2.74051 17.4795 2.65355C17.2124 2.47948 16.8253 2.26201 16.3041 2.04965C15.2592 1.62382 13.6931 1.22571 11.5 1.22571V3.22571C13.4451 3.22571 14.754 3.5776 15.5494 3.90177C15.9486 4.06441 16.2231 4.22194 16.3875 4.32911C16.4698 4.38278 16.5249 4.42404 16.5545 4.44731C16.5693 4.45896 16.5777 4.46611 16.58 4.46808C16.5812 4.46907 16.5808 4.46876 16.579 4.46707C16.578 4.46622 16.5766 4.46503 16.5749 4.46348C16.5741 4.46271 16.5731 4.46185 16.5721 4.46089C16.5716 4.46042 16.5711 4.45992 16.5705 4.4594C16.5702 4.45913 16.5698 4.45873 16.5697 4.4586C16.5692 4.45818 16.5688 4.45776 17.25 3.72571ZM11.5 1.22571C9.15325 1.22571 6.5449 2.27644 4.52583 4.1105C2.48885 5.96081 1 8.65641 1 11.9757H3C3 9.29501 4.19209 7.11561 5.8706 5.59091C7.56695 4.04998 9.7086 3.22571 11.5 3.22571V1.22571ZM1 11.9757C1 18.826 6.49665 23.2258 12 23.2258V21.2258C7.50335 21.2258 3 17.626 3 11.9757H1ZM22 10.7257C22 9.72566 22 9.72566 21.9999 9.72566C21.9999 9.72566 21.9997 9.72566 21.9996 9.72566C21.9994 9.72566 21.9992 9.72566 21.9988 9.72566C21.998 9.72566 21.9968 9.72566 21.9953 9.72566C21.9921 9.72566 21.9874 9.72566 21.9812 9.72566C21.9688 9.72566 21.9503 9.72566 21.9261 9.72566C21.8776 9.72566 21.8061 9.72566 21.7139 9.72566C21.5292 9.72571 21.2617 9.72571 20.9296 9.72571C20.2656 9.72571 19.3438 9.72576 18.3125 9.72576C16.25 9.72581 13.75 9.72586 12 9.72581V11.7258C13.75 11.7259 16.25 11.7258 18.3125 11.7258C19.3438 11.7258 20.2657 11.7257 20.9297 11.7257C21.2618 11.7257 21.5294 11.7257 21.7139 11.7257C21.8062 11.7257 21.8777 11.7257 21.9262 11.7257C21.9504 11.7257 21.9689 11.7257 21.9813 11.7257C21.9875 11.7257 21.9921 11.7257 21.9953 11.7257C21.9969 11.7257 21.9981 11.7257 21.9988 11.7257C21.9993 11.7257 21.9995 11.7257 21.9998 11.7257C21.9998 11.7257 21.9999 11.7257 22 11.7257C22 11.7257 22 11.7257 22 10.7257ZM11 10.7258V14.226H13V10.7258H11ZM12 15.226H16.75V13.226H12V15.226ZM15.75 14.226C15.75 14.5745 15.4892 15.192 14.7905 15.7656C14.1241 16.3127 13.1587 16.726 12 16.726V18.726C13.6413 18.726 15.051 18.1394 16.0595 17.3114C17.0358 16.51 17.75 15.3774 17.75 14.226H15.75ZM12 16.726C9.1914 16.726 7.5 14.3237 7.5 11.9757H5.5C5.5 15.1277 7.8086 18.726 12 18.726V16.726ZM7.5 11.9757C7.5 9.80766 9.5221 7.72566 12 7.72566V5.72566C8.4779 5.72566 5.5 8.64371 5.5 11.9757H7.5ZM12 7.72566C13.0001 7.72566 13.8226 8.11521 14.2806 8.35871L15.2194 6.59271C14.6774 6.30456 13.4999 5.72566 12 5.72566V7.72566ZM12 23.2258C14.8363 23.2258 18.2299 22.0696 20.5404 19.0883L18.9596 17.8632C17.0943 20.27 14.3349 21.2258 12 21.2258V23.2258ZM20.5404 19.0883C22.059 17.1289 23.2667 14.6929 22.9978 10.6592L21.0022 10.7922C21.2333 14.2587 20.2307 16.223 18.9596 17.8632L20.5404 19.0883Z" fill="white" stroke="white" mask="url(#path-2-inside-1_91_39446)"/>
</svg>
