<svg width="41" height="41" viewBox="0 0 41 41" fill="none" xmlns="http://www.w3.org/2000/svg">
<path d="M25.5 20.3032C25.5 21.2921 25.2068 22.2588 24.6573 23.0811C24.1079 23.9033 23.327 24.5442 22.4134 24.9226C21.4998 25.3011 20.4945 25.4001 19.5245 25.2071C18.5546 25.0142 17.6637 24.538 16.9645 23.8388C16.2652 23.1395 15.789 22.2486 15.5961 21.2787C15.4031 20.3088 15.5022 19.3034 15.8806 18.3898C16.259 17.4762 16.8999 16.6953 17.7221 16.1459C18.5444 15.5965 19.5111 15.3032 20.5 15.3032C21.8248 15.3073 23.0942 15.8355 24.031 16.7722C24.9678 17.709 25.4959 18.9784 25.5 20.3032V20.3032ZM36.125 13.4282V27.1782C36.125 29.4989 35.2031 31.7245 33.5622 33.3654C31.9212 35.0063 29.6956 35.9282 27.375 35.9282H13.625C11.3044 35.9282 9.07876 35.0063 7.43782 33.3654C5.79687 31.7245 4.875 29.4989 4.875 27.1782V13.4282C4.875 11.1076 5.79687 8.88198 7.43782 7.24104C9.07876 5.60009 11.3044 4.67822 13.625 4.67822H27.375C29.6956 4.67822 31.9212 5.60009 33.5622 7.24104C35.2031 8.88198 36.125 11.1076 36.125 13.4282V13.4282ZM28 20.3032C28 18.8199 27.5601 17.3698 26.736 16.1364C25.9119 14.9031 24.7406 13.9418 23.3701 13.3741C21.9997 12.8065 20.4917 12.6579 19.0368 12.9473C17.582 13.2367 16.2456 13.951 15.1967 14.9999C14.1478 16.0488 13.4335 17.3852 13.1441 18.84C12.8547 20.2949 13.0032 21.8029 13.5709 23.1733C14.1386 24.5438 15.0999 25.7151 16.3332 26.5392C17.5666 27.3634 19.0166 27.8032 20.5 27.8032C22.4891 27.8032 24.3968 27.013 25.8033 25.6065C27.2098 24.2 28 22.2923 28 20.3032ZM30.5 12.1782C30.5 11.8074 30.39 11.4449 30.184 11.1365C29.978 10.8282 29.6851 10.5879 29.3425 10.4459C28.9999 10.304 28.6229 10.2669 28.2592 10.3393C27.8955 10.4116 27.5614 10.5902 27.2992 10.8524C27.037 11.1146 26.8584 11.4487 26.786 11.8124C26.7137 12.1761 26.7508 12.5531 26.8927 12.8958C27.0346 13.2384 27.275 13.5312 27.5833 13.7372C27.8916 13.9433 28.2542 14.0532 28.625 14.0532C29.1223 14.0532 29.5992 13.8557 29.9508 13.504C30.3025 13.1524 30.5 12.6755 30.5 12.1782Z" fill="white"/>
</svg>
