<svg width="42" height="42" viewBox="0 0 42 42" fill="none" xmlns="http://www.w3.org/2000/svg">
<path d="M36.1981 4.78613H6.73902C6.03056 4.78613 5.45819 5.3585 5.45819 6.06696V35.5261C5.45819 36.2345 6.03056 36.8069 6.73902 36.8069H36.1981C36.9066 36.8069 37.479 36.2345 37.479 35.5261V6.06696C37.479 5.3585 36.9066 4.78613 36.1981 4.78613ZM14.9564 32.0718H10.2053V16.7899H14.9564V32.0718ZM12.5828 14.7006C12.0382 14.7006 11.5057 14.5391 11.0529 14.2365C10.6 13.9339 10.2471 13.5038 10.0386 13.0006C9.83022 12.4974 9.77568 11.9437 9.88194 11.4095C9.9882 10.8754 10.2505 10.3847 10.6356 9.99956C11.0207 9.61443 11.5114 9.35216 12.0456 9.24591C12.5798 9.13965 13.1335 9.19418 13.6366 9.40261C14.1398 9.61104 14.5699 9.964 14.8725 10.4169C15.1751 10.8697 15.3366 11.4021 15.3366 11.9468C15.3326 13.4678 14.0998 14.7006 12.5828 14.7006ZM32.7439 32.0718H27.9968V24.639C27.9968 22.8659 27.9648 20.5884 25.5272 20.5884C23.0576 20.5884 22.6774 22.5176 22.6774 24.5109V32.0718H17.9343V16.7899H22.4892V18.8793H22.5533C23.1857 17.6785 24.7347 16.4097 27.0482 16.4097C31.8593 16.4097 32.7439 19.5757 32.7439 23.6904V32.0718Z" fill="white"/>
</svg>
