<svg width="24" height="24" viewBox="0 0 24 24" fill="none" xmlns="http://www.w3.org/2000/svg">
<path d="M9.92991 12.99C10.0299 12.99 12.3499 13.09 13.7299 12.75H13.7399C15.3299 12.36 17.5399 11.24 18.1099 7.58C18.1099 7.58 19.3799 3 13.0799 3H7.66991C7.17991 3 6.75991 3.36 6.67991 3.84L4.37991 18.4C4.32991 18.7 4.56991 18.98 4.86991 18.98H8.29991L9.13991 13.66C9.19991 13.28 9.52991 12.99 9.92991 12.99V12.99Z" fill="white"/>
<path d="M18.9901 8.29004C18.1801 12.02 15.6301 13.99 11.5701 13.99H10.1001L9.07005 20.51C9.03005 20.77 9.23005 21 9.49005 21H11.3901C11.7301 21 12.0301 20.75 12.0801 20.41C12.1601 20.01 12.6001 17.09 12.6901 16.59C12.7401 16.25 13.0401 16 13.3801 16H13.8201C16.6401 16 18.8501 14.85 19.5001 11.54C19.7601 10.2 19.6201 9.10004 18.9901 8.29004V8.29004Z" fill="white"/>
</svg>
