<svg width="20" height="20" viewBox="0 0 20 20" fill="none" xmlns="http://www.w3.org/2000/svg">
<path d="M1.6665 5.4165H18.3332V15.4165H1.6665V5.4165Z" stroke="#E6007E" stroke-width="2" stroke-linejoin="round"/>
<path fill-rule="evenodd" clip-rule="evenodd" d="M1.6665 8.74984C3.50745 8.74984 4.99984 7.25746 4.99984 5.4165H1.6665V8.74984Z" stroke="#E6007E" stroke-width="2" stroke-linecap="round" stroke-linejoin="round"/>
<path fill-rule="evenodd" clip-rule="evenodd" d="M1.6665 12.0835C3.50745 12.0835 4.99984 13.5759 4.99984 15.4168H1.6665V12.0835Z" stroke="#E6007E" stroke-width="2" stroke-linecap="round" stroke-linejoin="round"/>
<path fill-rule="evenodd" clip-rule="evenodd" d="M18.3333 12.0835V15.4168H15C15 13.5759 16.4924 12.0835 18.3333 12.0835Z" stroke="#E6007E" stroke-width="2" stroke-linecap="round" stroke-linejoin="round"/>
<path fill-rule="evenodd" clip-rule="evenodd" d="M18.3333 8.74984C16.4924 8.74984 15 7.25746 15 5.4165H18.3333V8.74984Z" stroke="#E6007E" stroke-width="2" stroke-linecap="round" stroke-linejoin="round"/>
<path d="M9.99984 12.9165C11.1504 12.9165 12.0832 11.7972 12.0832 10.4165C12.0832 9.0358 11.1504 7.9165 9.99984 7.9165C8.84925 7.9165 7.9165 9.0358 7.9165 10.4165C7.9165 11.7972 8.84925 12.9165 9.99984 12.9165Z" stroke="#E6007E" stroke-width="2" stroke-linejoin="round"/>
</svg>
