<svg width="41" height="42" viewBox="0 0 41 42" fill="none" xmlns="http://www.w3.org/2000/svg">
<path d="M37.1449 10.4819C35.9201 11.0103 34.5873 11.3905 33.2144 11.5386C34.6398 10.6918 35.7072 9.35399 36.2163 7.77617C34.8788 8.57184 33.4135 9.12978 31.8855 9.42524C31.2469 8.7425 30.4745 8.1986 29.6165 7.82743C28.7584 7.45626 27.8332 7.26577 26.8983 7.26784C23.1158 7.26784 20.0739 10.3338 20.0739 14.0963C20.0739 14.6246 20.1379 15.153 20.242 15.6613C14.5783 15.3651 9.52702 12.6593 6.16884 8.51665C5.55694 9.56179 5.23629 10.7518 5.24023 11.9629C5.24023 14.3324 6.44502 16.4218 8.28221 17.6506C7.19952 17.6079 6.14219 17.3103 5.19621 16.782V16.8661C5.19621 20.1842 7.54173 22.934 10.6678 23.5664C10.0808 23.7189 9.47701 23.7969 8.87059 23.7986C8.4263 23.7986 8.00603 23.7545 7.58175 23.6945C8.44631 26.4003 10.9639 28.3655 13.9619 28.4296C11.6164 30.2668 8.67846 31.3475 5.48839 31.3475C4.91602 31.3475 4.38768 31.3275 3.83932 31.2634C6.86529 33.2047 10.4556 34.3254 14.3221 34.3254C26.8743 34.3254 33.7427 23.9266 33.7427 14.9008C33.7427 14.6046 33.7427 14.3084 33.7227 14.0122C35.0516 13.0396 36.2163 11.8348 37.1449 10.4819Z" fill="white"/>
</svg>
