<svg id="Layer_1" data-name="Layer 1" xmlns="http://www.w3.org/2000/svg" viewBox="0 0 247.86 177.95"><defs><style>.cls-1{fill:#009fe3;}.cls-2{fill:#e6007e;}</style></defs><polygon class="cls-1" points="247.86 43.82 125.09 0 0 44.4 125.09 87.64 247.86 43.82"/><polygon class="cls-1" points="125.05 99.72 118.61 102.07 118.57 102.05 118.57 102.08 118.53 102.09 118.57 102.12 118.45 157.34 51.45 135.78 51.45 78.55 29.45 70.86 29.45 147.78 125.24 177.95 139.45 173.61 139.45 114.76 139.1 114.55 125.05 99.72"/><polygon class="cls-2" points="125.05 99.72 139.26 114.71 172.3 102.52 172.45 166.9 193.4 159.24 193.45 94.71 222.21 84.09 223.28 64.62 139.26 94.55 125.05 99.72"/><polygon class="cls-2" points="236.72 47.8 236.86 104.35 247.52 101.25 247.86 43.82 236.72 47.8"/></svg>