<svg width="374" height="79" viewBox="0 0 374 79" fill="none" xmlns="http://www.w3.org/2000/svg">
<g clip-path="url(#clip0_54_41272)">
<path d="M113.015 19.4537L57.0365 0L0 19.7112L57.0365 38.9073L113.015 19.4537Z" fill="#009FE3"/>
<path d="M57.0183 44.2702L54.0819 45.3135L54.0637 45.3046V45.3179L54.0454 45.3223L54.0637 45.3357L54.009 69.8503L23.4594 60.2788V34.8719L13.4281 31.4579V65.6062L57.1049 79L63.5842 77.0733V50.9471L63.4246 50.8539L57.0183 44.2702Z" fill="#009FE3"/>
<path d="M57.0183 44.2702L63.4976 50.9249L78.5626 45.5132L78.631 74.0944L88.1835 70.6938L88.2062 42.046L101.32 37.3313L101.808 28.6877L63.4976 41.975L57.0183 44.2702Z" fill="#E6007E"/>
<path d="M107.936 21.2206L108 46.3257L112.86 44.9494L113.015 19.4537L107.936 21.2206Z" fill="#E6007E"/>
<path d="M120.302 15.7867H130.711V44.9494C130.711 47.6605 131.482 49.8402 133.023 51.4887C134.564 53.1372 136.593 53.96 139.11 53.9571C141.992 53.9571 144.229 53.1284 145.822 51.471C147.415 49.8136 148.217 47.471 148.229 44.4433V15.7867H158.598V46.6586C158.54 49.593 157.802 52.4767 156.437 55.0936C155.03 57.9766 152.692 60.3314 149.78 61.7971C146.678 63.3698 143.223 64.1677 139.726 64.119C133.008 64.119 128.096 62.2973 124.989 58.654C121.882 55.0107 120.327 51.178 120.324 47.1558L120.302 15.7867Z" fill="#009FE3"/>
<path d="M177.411 32.2393V35.9418C180.667 32.9822 184.086 31.4935 187.67 31.4757C190.731 31.4757 193.262 32.698 195.262 35.1427C197.262 37.5873 198.262 40.7112 198.262 44.5144V63.4753H188.578V46.006C188.631 44.3676 188.097 42.7621 187.068 41.4645C186.649 40.8956 186.098 40.4313 185.459 40.1096C184.82 39.7878 184.112 39.6178 183.393 39.6132C181.652 39.6132 180.221 40.3931 179.103 41.9528C177.984 43.5125 177.42 45.5295 177.411 48.0038V63.4753H167.872V32.2393H177.411Z" fill="#009FE3"/>
<path d="M205.681 20.6701C205.681 19.1288 206.31 17.6507 207.429 16.5609C208.548 15.4711 210.066 14.8588 211.649 14.8588C213.232 14.8588 214.751 15.4711 215.87 16.5609C216.989 17.6507 217.618 19.1288 217.618 20.6701C217.618 22.2145 216.988 23.6958 215.868 24.7887C214.747 25.8815 213.227 26.4967 211.64 26.4991C210.058 26.4909 208.543 25.8732 207.426 24.7811C206.309 23.689 205.682 22.211 205.681 20.6701ZM206.912 32.2393H216.464V63.4752H206.903L206.912 32.2393Z" fill="#009FE3"/>
<path d="M222.169 15.7867H255.112V25.9175H243.882V63.4752H233.326V25.9175H222.169V15.7867Z" fill="#E6007E"/>
<path d="M258.887 32.3103H268.604V47.2757C268.522 49.2127 269.112 51.1201 270.277 52.6918C270.742 53.3563 271.366 53.9004 272.095 54.2771C272.825 54.6539 273.637 54.8518 274.463 54.8538C275.318 54.8603 276.164 54.6751 276.934 54.3125C277.704 53.9499 278.378 53.4197 278.904 52.7629C280.146 51.2873 280.794 49.4221 280.728 47.5154V32.3103H290.426V50.4721C290.454 52.3109 290.062 54.1328 289.279 55.8063C288.496 57.4799 287.342 58.9635 285.899 60.1501C282.88 62.7546 279.123 64.0568 274.627 64.0568C269.858 64.0568 266.044 62.7486 263.187 60.1323C260.33 57.516 258.903 54.0414 258.906 49.7085L258.887 32.3103Z" fill="#E6007E"/>
<path d="M298.242 21.5225H307.817V32.2393H312.376V40.7764H307.817V63.4753H298.242V40.7764H294.594V32.2393H298.242V21.5225Z" fill="#E6007E"/>
<path d="M316.024 47.9283C316.024 43.113 317.6 39.1781 320.753 36.1238C323.905 33.0694 327.96 31.5438 332.918 31.5467C335.075 31.5 337.219 31.8911 339.213 32.6951C341.207 33.4992 343.007 34.6986 344.499 36.217C347.618 39.3305 349.179 43.1943 349.182 47.8084C349.182 52.5054 347.621 56.4032 344.499 59.5019C341.377 62.6007 337.467 64.15 332.767 64.15C327.469 64.15 323.353 62.5104 320.42 59.2311C317.554 56.1312 315.986 52.0985 316.024 47.9283ZM339.789 47.9283C339.816 45.8947 339.057 43.9255 337.664 42.41C336.248 40.8355 334.593 40.0483 332.699 40.0483C331.74 40.0435 330.791 40.2392 329.916 40.6222C329.041 41.0051 328.261 41.5663 327.629 42.268C326.231 43.6937 325.466 45.598 325.499 47.5687C325.443 49.6714 326.196 51.7187 327.61 53.3089C328.212 54.0417 328.975 54.6342 329.843 55.0431C330.71 55.4519 331.66 55.6667 332.624 55.6718C333.588 55.677 334.541 55.4722 335.413 55.0726C336.285 54.673 337.054 54.0886 337.664 53.3622C339.055 51.8794 339.812 49.9359 339.78 47.9283H339.789Z" fill="#E6007E"/>
<path d="M365.305 32.2393V36.8519H365.455C366.292 35.4186 367.414 34.1628 368.756 33.1582C370.012 32.2526 371.175 31.7998 372.245 31.7998C372.831 31.7957 373.417 31.8432 373.995 31.9418V42.1171C373.221 41.9753 372.435 41.9025 371.647 41.8995C369.68 41.8995 368.161 42.5714 367.088 43.915C366.015 45.2587 365.47 47.1484 365.455 49.5842V63.4974H355.757V32.2393H365.305Z" fill="#E6007E"/>
</g>
<defs>
<clipPath id="clip0_54_41272">
<rect width="374" height="79" fill="white"/>
</clipPath>
</defs>
</svg>
