<svg width="28" height="28" viewBox="0 0 28 28" fill="none" xmlns="http://www.w3.org/2000/svg">
<path d="M14 25.6666C17.2216 25.6666 20.1383 24.3608 22.2496 22.2495C24.3608 20.1383 25.6667 17.2216 25.6667 14C25.6667 10.7783 24.3608 7.86168 22.2496 5.7504C20.1383 3.63915 17.2216 2.33331 14 2.33331C10.7784 2.33331 7.86171 3.63915 5.75043 5.7504C3.63918 7.86168 2.33334 10.7783 2.33334 14C2.33334 17.2216 3.63918 20.1383 5.75043 22.2495C7.86171 24.3608 10.7784 25.6666 14 25.6666Z" fill="#FFF5DB" stroke="#FFC637" stroke-width="2" stroke-linejoin="round"/>
<path d="M15.2083 20.125C15.2083 20.7924 14.6673 21.3334 14 21.3334C13.3327 21.3334 12.7917 20.7924 12.7917 20.125C12.7917 19.4577 13.3327 18.9167 14 18.9167C14.6673 18.9167 15.2083 19.4577 15.2083 20.125Z" fill="#FFC637" stroke="#FFC637" stroke-width="0.5"/>
<path d="M14 7V16.3333" stroke="#FFC637" stroke-width="2" stroke-linecap="round" stroke-linejoin="round"/>
</svg>
